<svg width="19" height="25" viewBox="0 0 19 25" fill="none" xmlns="http://www.w3.org/2000/svg">
<path d="M14.5795 0.106238C14.7324 0.194892 14.8508 0.332785 14.9152 0.497391C14.9796 0.661996 14.9863 0.843584 14.9342 1.01249L12.1201 10.1562H17.3123C17.4649 10.1562 17.6142 10.2008 17.7417 10.2846C17.8692 10.3684 17.9694 10.4877 18.0299 10.6278C18.0904 10.7679 18.1085 10.9226 18.0821 11.0729C18.0556 11.2232 17.9857 11.3624 17.8811 11.4734L5.38107 24.7547C5.26013 24.8833 5.09918 24.9671 4.92447 24.9926C4.74976 25.018 4.57159 24.9835 4.419 24.8947C4.2664 24.8059 4.14839 24.668 4.08418 24.5036C4.01998 24.3391 4.01338 24.1577 4.06545 23.989L6.87951 14.8437H1.68732C1.53474 14.8438 1.38547 14.7992 1.25796 14.7154C1.13044 14.6316 1.03026 14.5123 0.969769 14.3722C0.909281 14.2321 0.89114 14.0774 0.917584 13.9271C0.944028 13.7768 1.0139 13.6376 1.11857 13.5266L13.6186 0.245301C13.7394 0.116862 13.9001 0.0330643 14.0745 0.00753292C14.249 -0.0179984 14.427 0.0162381 14.5795 0.104676V0.106238ZM3.49514 13.2812H7.93732C8.05959 13.2812 8.18015 13.3099 8.28931 13.3649C8.39847 13.42 8.49319 13.4999 8.56584 13.5983C8.63849 13.6966 8.68705 13.8106 8.7076 13.9311C8.72816 14.0517 8.72014 14.1753 8.6842 14.2922L6.5467 21.2344L15.5029 11.7187H11.0623C10.9401 11.7188 10.8195 11.6901 10.7103 11.635C10.6012 11.58 10.5065 11.5001 10.4338 11.4017C10.3612 11.3034 10.3126 11.1894 10.292 11.0688C10.2715 10.9483 10.2795 10.8247 10.3154 10.7078L12.4529 3.76561L3.49514 13.2812Z" fill="white"/>
</svg>
