<svg width="25" height="25" viewBox="0 0 25 25" fill="none" xmlns="http://www.w3.org/2000/svg">
<path d="M3.95312 14.1781L4.68281 15.6156C4.18281 16.1078 3.90625 16.6438 3.90625 17.1875C3.90625 19.1969 7.69844 21.0938 12.5 21.0938C17.3016 21.0938 21.0938 19.1969 21.0938 17.1875C21.0938 16.6438 20.8156 16.1094 20.3172 15.6172L21.0609 14.1906C22.0688 15.0344 22.6562 16.0563 22.6562 17.1875C22.6562 20.3547 18.0531 22.6563 12.5 22.6563C6.94688 22.6563 2.34375 20.3547 2.34375 17.1875C2.34375 16.05 2.9375 15.025 3.95312 14.1781V14.1781Z" fill="white"/>
<path d="M3.95312 9.49063L4.68281 10.9281C4.18281 11.4219 3.90625 11.9578 3.90625 12.5C3.90625 14.5094 7.69844 16.4063 12.5 16.4063C17.3016 16.4063 21.0938 14.5094 21.0938 12.5C21.0938 11.9563 20.8156 11.4219 20.3172 10.9297L21.0609 9.50313C22.0688 10.3469 22.6562 11.3688 22.6562 12.5C22.6562 15.6672 18.0531 17.9688 12.5 17.9688C6.94688 17.9688 2.34375 15.6672 2.34375 12.5C2.34375 11.3625 2.9375 10.3375 3.95312 9.49063V9.49063Z" fill="white"/>
<path d="M12.5 13.2812C6.94688 13.2812 2.34375 10.9797 2.34375 7.8125C2.34375 4.64531 6.94688 2.34375 12.5 2.34375C18.0531 2.34375 22.6562 4.64531 22.6562 7.8125C22.6562 10.9797 18.0531 13.2812 12.5 13.2812ZM12.5 11.7188C17.3016 11.7188 21.0938 9.82188 21.0938 7.8125C21.0938 5.80312 17.3016 3.90625 12.5 3.90625C7.69844 3.90625 3.90625 5.80312 3.90625 7.8125C3.90625 9.82188 7.69844 11.7188 12.5 11.7188Z" fill="white"/>
</svg>
