<svg width="14" height="23" viewBox="0 0 14 23" fill="none" xmlns="http://www.w3.org/2000/svg">
<path d="M0.25 15.8453C0.48125 18.45 2.61406 20.2984 5.86094 20.5375V22.4375H7.49063V20.5375C11.0375 20.2578 13.2375 18.2906 13.2375 15.3813C13.2375 12.8969 11.7578 11.4594 8.61875 10.65L7.49063 10.3578V4.41719C9.24375 4.58906 10.4266 5.53281 10.725 6.94219H13.0219C12.7625 4.44219 10.6156 2.64844 7.49063 2.45V0.5625H5.86094V2.48906C2.83125 2.84844 0.751563 4.78906 0.751563 7.42031C0.751563 9.69219 2.26094 11.3 4.90938 11.9781L5.8625 12.2313V18.5297C4.06719 18.2641 2.83125 17.2797 2.53281 15.8453H0.25ZM5.54844 9.85156C3.91875 9.44063 3.04844 8.5625 3.04844 7.32656C3.04844 5.85156 4.14844 4.7625 5.86094 4.47031V9.93125L5.54844 9.85313V9.85156ZM8.03438 12.7766C10.0453 13.2813 10.9281 14.1188 10.9281 15.5406C10.9281 17.2547 9.6375 18.3969 7.49063 18.5703V12.6406L8.03438 12.775V12.7766Z" fill="white"/>
</svg>
