<svg width="23" height="21" viewBox="0 0 23 21" fill="none" xmlns="http://www.w3.org/2000/svg">
<path d="M22.108 10.3291L12.6744 0.900391L12.0421 0.268067C11.898 0.124943 11.7032 0.0446167 11.5001 0.0446167C11.297 0.0446167 11.1022 0.124943 10.9581 0.268067L0.892191 10.3291C0.744562 10.4762 0.627888 10.6513 0.549057 10.8442C0.470225 11.0371 0.430833 11.2438 0.433207 11.4521C0.442972 12.3115 1.1583 12.9976 2.01768 12.9976H3.05528V20.9492H19.9449V12.9976H21.0045C21.422 12.9976 21.815 12.834 22.1105 12.5386C22.2559 12.3936 22.3712 12.2212 22.4495 12.0313C22.5279 11.8415 22.5678 11.638 22.567 11.4326C22.567 11.0176 22.4034 10.6245 22.108 10.3291ZM12.8673 19.1914H10.1329V14.2109H12.8673V19.1914ZM18.1871 11.2397V19.1914H14.4298V13.625C14.4298 13.0854 13.9928 12.6484 13.4532 12.6484H9.54698C9.00743 12.6484 8.57041 13.0854 8.57041 13.625V19.1914H4.81309V11.2397H2.46934L11.5025 2.21387L12.0665 2.77783L20.5333 11.2397H18.1871Z" fill="white"/>
</svg>
