<svg width="31" height="33" viewBox="0 0 31 33" fill="none" xmlns="http://www.w3.org/2000/svg">
<path d="M15.5 0C6.93948 0 0 7.33248 0 16.3778C0 25.4231 6.93948 32.7556 15.5 32.7556C24.0605 32.7556 31 25.4231 31 16.3778C31 7.33248 24.0605 0 15.5 0ZM21.8049 13.4162C21.8114 13.556 21.813 13.6959 21.813 13.8324C21.813 18.0975 18.7437 23.0125 13.1282 23.0125C11.4689 23.0154 9.84406 22.5119 8.44911 21.5624C8.68646 21.5931 8.93026 21.6051 9.17729 21.6051C10.6078 21.6051 11.9237 21.0915 12.9683 20.2249C12.3317 20.2117 11.7149 19.9889 11.2038 19.5877C10.6927 19.1865 10.3127 18.6268 10.117 17.9866C10.5742 18.0784 11.0451 18.0592 11.4942 17.9303C10.8033 17.7827 10.1819 17.387 9.73547 16.8106C9.28905 16.2341 9.04507 15.5122 9.0449 14.7673V14.7281C9.45661 14.9686 9.92807 15.1154 10.4286 15.1324C9.78082 14.6768 9.32226 13.9769 9.14669 13.1758C8.97112 12.3748 9.0918 11.5331 9.48406 10.823C10.2509 11.8193 11.2072 12.6344 12.2911 13.2154C13.375 13.7964 14.5623 14.1304 15.7761 14.1958C15.6218 13.5037 15.6882 12.7771 15.965 12.129C16.2418 11.4808 16.7136 10.9475 17.3068 10.6119C17.9001 10.2763 18.5817 10.1572 19.2457 10.2731C19.9096 10.389 20.5187 10.7335 20.9783 11.2529C21.6615 11.1101 22.3167 10.8453 22.9158 10.4699C22.6881 11.2173 22.2113 11.852 21.5741 12.2561C22.1793 12.179 22.7703 12.0071 23.3275 11.746C22.9182 12.3941 22.4026 12.9597 21.8049 13.4162Z" fill="#4C388E"/>
</svg>
